<svg width="500" height="400" viewBox="0 0 500 400" xmlns="http://www.w3.org/2000/svg">
  <defs>
    <linearGradient id="bgGradient" x1="0%" y1="0%" x2="100%" y2="100%">
      <stop offset="0%" stop-color="#1a2980" />
      <stop offset="100%" stop-color="#26d0ce" />
    </linearGradient>
    <linearGradient id="primaryGradient" x1="0%" y1="0%" x2="100%" y2="100%">
      <stop offset="0%" stop-color="#3a7bd5" />
      <stop offset="50%" stop-color="#00d2ff" />
      <stop offset="100%" stop-color="#48b1bf" />
    </linearGradient>
    <linearGradient id="secondaryGradient" x1="0%" y1="0%" x2="100%" y2="100%">
      <stop offset="0%" stop-color="#ff7e5f" />
      <stop offset="100%" stop-color="#feb47b" />
    </linearGradient>
    <filter id="softGlow" width="150%" height="150%" x="-25%" y="-25%">
      <feGaussianBlur stdDeviation="8" result="blur"/>
      <feComposite in="SourceGraphic" in2="blur" operator="over"/>
    </filter>
    <filter id="subtleShadow" x="-20%" y="-20%" width="140%" height="140%">
      <feGaussianBlur in="SourceAlpha" stdDeviation="3"/> 
      <feOffset dx="2" dy="2" result="offsetblur"/>
      <feComponentTransfer>
        <feFuncA type="linear" slope="0.2"/>
      </feComponentTransfer>
      <feMerge> 
        <feMergeNode/>
        <feMergeNode in="SourceGraphic"/> 
      </feMerge>
    </filter>
  </defs>
  
  <!-- Background -->
  <rect width="500" height="400" fill="url(#bgGradient)"/>
  
  <!-- Decorative elements with improved color harmony -->
  <circle cx="100" cy="100" r="80" fill="url(#secondaryGradient)" opacity="0.1" filter="url(#softGlow)"/>
  <circle cx="400" cy="150" r="100" fill="url(#primaryGradient)" opacity="0.1" filter="url(#softGlow)"/>
  <circle cx="250" cy="50" r="60" fill="url(#secondaryGradient)" opacity="0.08" filter="url(#softGlow)"/>
  
  <!-- Students collaborating -->
  <!-- Student 1 (left) -->
  <g filter="url(#subtleShadow)">
    <circle cx="180" cy="180" r="30" fill="#ffddb3" />
    <path d="M180 210 L180 260 M180 230 L150 240 M180 230 L210 240" stroke="#1e293b" stroke-width="2" fill="none" />
    <path d="M160 170 L200 170" stroke="#1e293b" stroke-width="2" fill="none" stroke-linecap="round" />
    <path d="M170 190 L190 190" stroke="#1e293b" stroke-width="2" fill="none" stroke-linecap="round" />
  </g>
  
  <!-- Tablet device -->
  <g filter="url(#subtleShadow)">
    <rect x="140" y="150" width="40" height="55" rx="4" fill="white" stroke="#1e293b" stroke-width="1.5" />
    <rect x="145" y="155" width="30" height="45" rx="2" fill="#f8fafc" />
    <path d="M145 160 L175 160 M150 165 L170 165 M150 170 L170 170" stroke="#e2e8f0" stroke-width="1" />
    <circle cx="160" cy="185" r="3" fill="url(#primaryGradient)" />
  </g>
  
  <!-- Student 2 (right) -->
  <g filter="url(#subtleShadow)">
    <circle cx="320" cy="180" r="30" fill="#ffcc99" />
    <path d="M320 210 L320 260 M320 230 L290 240 M320 230 L350 240" stroke="#1e293b" stroke-width="2" fill="none" />
    <path d="M300 170 L340 170" stroke="#1e293b" stroke-width="2" fill="none" stroke-linecap="round" />
    <path d="M310 190 L330 190" stroke="#1e293b" stroke-width="2" fill="none" stroke-linecap="round" />
  </g>
  
  <!-- Notes -->
  <g filter="url(#subtleShadow)">
    <rect x="340" y="150" width="50" height="60" rx="2" fill="white" stroke="#1e293b" stroke-width="1.5" />
    <rect x="335" y="155" width="50" height="60" rx="2" fill="white" stroke="#1e293b" stroke-width="1.5" opacity="0.8" />
    <path d="M340 165 L380 165 M340 170 L380 170 M340 175 L370 175" stroke="#e2e8f0" stroke-width="1" />
  </g>
  
  <!-- Connection -->
  <path d="M210 180 Q250 140 290 180" stroke="url(#primaryGradient)" stroke-width="4" fill="none" stroke-dasharray="8,4" />
  <circle cx="250" cy="140" r="8" fill="url(#primaryGradient)" />
  
  <!-- Floating elements with secondary color accent -->
  <g filter="url(#subtleShadow)">
    <rect x="50" y="100" width="30" height="40" rx="2" fill="white" stroke="#1e293b" stroke-width="1.5" transform="rotate(-10 50 100)"/>
    <path d="M55 105 L75 105 M55 110 L75 110" stroke="#1e293b" stroke-width="1" transform="rotate(-10 50 100)"/>
  </g>
  
  <g filter="url(#subtleShadow)">
    <rect x="420" y="80" width="30" height="40" rx="2" fill="white" stroke="#1e293b" stroke-width="1.5" transform="rotate(15 420 80)"/>
    <path d="M425 85 L445 85 M425 90 L445 90" stroke="#1e293b" stroke-width="1" transform="rotate(15 420 80)"/>
  </g>
  
  <!-- Additional decorative elements -->
  <circle cx="70" cy="300" r="15" fill="url(#secondaryGradient)" opacity="0.3" filter="url(#softGlow)"/>
  <circle cx="430" cy="320" r="20" fill="url(#primaryGradient)" opacity="0.3" filter="url(#softGlow)"/>
</svg>